# WaveFront *.obj file (generated by CINEMA 4D)

mtllib models/block/suit_stand.mtl

v 0.71249997615814 0.73874998092651 0.17253422737122
v 0.71249997615814 1.37625002861023 0.17253422737122
v 0.71249997615814 0.73874998092651 0.38503423333168
v 0.71249997615814 1.37625002861023 0.38503423333168
v 0.92500001192093 0.73874998092651 0.17253422737122
v 0.92500001192093 1.37625002861023 0.17253422737122
v 0.92500001192093 0.73874998092651 0.38503423333168
v 0.92500001192093 1.37625002861023 0.38503423333168
# 8 vertices

vn 0 0 -1
vn 0 0 1
vn 0 1 0
vn 0 -1 0
vn 1 0 0
vn -1 0 0
# 6 normals

vt 0.6875 0.6875 0
vt 0.75 0.6875 0
vt 0.75 0.5 0
vt 0.6875 0.5 0
vt 0.8125 0.6875 0
vt 0.875 0.6875 0
vt 0.875 0.5 0
vt 0.8125 0.5 0
vt 0.6875 0.75 0
vt 0.75 0.75 0
vt 0.8125 0.75 0
vt 0.625 0.6875 0
vt 0.625 0.5 0
# 13 texture coordinates

o rightArm
usemtl Default
f 5/4/1 1/3/1 2/2/1 6/1/1
f 3/8/2 7/7/2 8/6/2 4/5/2
f 6/1/3 2/2/3 4/10/3 8/9/3
f 7/2/4 3/5/4 1/11/4 5/10/4
f 7/13/5 5/4/5 6/1/5 8/12/5
f 1/3/6 3/8/6 4/5/6 2/2/6

v 0.70718747377396 0.10125000029802 0.17253422737122
v 0.49468749761581 0.10125000029802 0.17253422737122
v 0.49468749761581 0.73874998092651 0.17253422737122
v 0.70718747377396 0.73874998092651 0.17253422737122
v 0.49468749761581 0.10125000029802 0.38503423333168
v 0.70718747377396 0.10125000029802 0.38503423333168
v 0.70718747377396 0.73874998092651 0.38503423333168
v 0.49468749761581 0.73874998092651 0.38503423333168
# 8 vertices

# 0 normal

vt 0.0625 0.6875 0
vt 0.125 0.6875 0
vt 0.125 0.5 0
vt 0.0625 0.5 0
vt 0.1875 0.6875 0
vt 0.25 0.6875 0
vt 0.25 0.5 0
vt 0.1875 0.5 0
vt 0.0625 0.75 0
vt 0.125 0.75 0
vt 0.1875 0.75 0
vt 0 0.6875 0
vt 0 0.5 0
# 13 texture coordinates

o rightLeg
usemtl Default
f 9/17/1 10/16/1 11/15/1 12/14/1
f 13/21/2 14/20/2 15/19/2 16/18/2
f 12/14/3 11/15/3 16/23/3 15/22/3
f 14/15/4 13/18/4 10/24/4 9/23/4
f 14/26/5 9/17/5 12/14/5 15/25/5
f 10/16/6 13/21/6 16/18/6 11/15/6

v 0.71249997615814 1.37625002861023 0.06628423184156
v 0.28749999403954 1.37625002861023 0.06628423184156
v 0.28749999403954 1.80124998092651 0.06628423184156
v 0.71249997615814 1.80124998092651 0.06628423184156
v 0.28749999403954 1.37625002861023 0.49128422141075
v 0.71249997615814 1.37625002861023 0.49128422141075
v 0.71249997615814 1.80124998092651 0.49128422141075
v 0.28749999403954 1.80124998092651 0.49128422141075
# 8 vertices

# 0 normal

vt 0.125 0.875 0
vt 0.25 0.875 0
vt 0.25 0.75 0
vt 0.375 0.875 0
vt 0.5 0.875 0
vt 0.5 0.75 0
vt 0.375 0.75 0
vt 0.125 1 0
vt 0.25 1 0
vt 0.375 1 0
vt 0 0.875 0
vt 0 0.75 0
# 12 texture coordinates

o head
usemtl Default
f 17/23/1 18/29/1 19/28/1 20/27/1
f 21/33/2 22/32/2 23/31/2 24/30/2
f 20/27/3 19/28/3 24/35/3 23/34/3
f 22/28/4 21/30/4 18/36/4 17/35/4
f 22/38/5 17/23/5 20/27/5 23/37/5
f 18/29/6 21/33/6 24/30/6 19/28/6

v 0.28749999403954 0.73874998092651 0.17253422737122
v 0.28749999403954 1.37625002861023 0.17253422737122
v 0.28749999403954 0.73874998092651 0.38503423333168
v 0.28749999403954 1.37625002861023 0.38503423333168
# 4 vertices

# 0 normal

vt 0.3125 0.6875 0
vt 0.4375 0.6875 0
vt 0.4375 0.5 0
vt 0.3125 0.5 0
vt 0.5 0.6875 0
vt 0.5 0.5 0
vt 0.3125 0.75 0
vt 0.4375 0.75 0
vt 0.5625 0.75 0
vt 0.5625 0.6875 0
# 10 texture coordinates

o chest
usemtl Default
f 1/42/1 25/41/1 26/40/1 2/39/1
f 27/44/2 3/13/2 4/12/2 28/43/2
f 2/39/3 26/40/3 28/46/3 4/45/3
f 3/40/4 27/48/4 25/47/4 1/46/4
f 3/20/5 1/42/5 2/39/5 4/19/5
f 25/41/6 27/44/6 28/43/6 26/40/6

v 0.07500000298023 0.73874998092651 0.17253422737122
v 0.07500000298023 1.37625002861023 0.17253422737122
v 0.07500000298023 0.73874998092651 0.38503423333168
v 0.07500000298023 1.37625002861023 0.38503423333168
# 4 vertices

# 0 normal

# 0 texture coordinate

o leftArm
usemtl Default
f 25/3/1 29/4/1 30/1/1 26/2/1
f 31/7/2 27/8/2 28/5/2 32/6/2
f 26/2/3 30/1/3 32/9/3 28/10/3
f 27/5/4 31/2/4 29/10/4 25/11/4
f 27/8/5 25/3/5 26/2/5 28/5/5
f 29/4/6 31/13/6 32/12/6 30/1/6

v 0.50531250238419 0.10125000029802 0.17253422737122
v 0.29281249642372 0.10125000029802 0.17253422737122
v 0.29281249642372 0.73874998092651 0.17253422737122
v 0.50531250238419 0.73874998092651 0.17253422737122
v 0.29281249642372 0.10125000029802 0.38503423333168
v 0.50531250238419 0.10125000029802 0.38503423333168
v 0.50531250238419 0.73874998092651 0.38503423333168
v 0.29281249642372 0.73874998092651 0.38503423333168
# 8 vertices

# 0 normal

# 0 texture coordinate

o leftLeg
usemtl Default
f 33/16/1 34/17/1 35/14/1 36/15/1
f 37/20/2 38/21/2 39/18/2 40/19/2
f 36/15/3 35/14/3 40/22/3 39/23/3
f 38/18/4 37/15/4 34/23/4 33/24/4
f 38/21/5 33/16/5 36/15/5 39/18/5
f 34/17/6 37/26/6 40/25/6 35/14/6

v 0.765625 0.04812499880791 0.43815922737122
v 0.234375 0.04812499880791 0.43815922737122
v 0.765625 0.04812499880791 0.11940923333168
v 0.234375 0.04812499880791 0.11940923333168
v 0.234375 0.10125000029802 0.11940923333168
v 0.765625 0.10125000029802 0.11940923333168
v 0.765625 0.10125000029802 0.43815922737122
v 0.234375 0.10125000029802 0.43815922737122
# 8 vertices

# 0 normal

vt 0.09375 0.046875 0
vt 0.25 0.046875 0
vt 0.25 0.03125 0
vt 0.09375 0.03125 0
vt 0.34375 0.046875 0
vt 0.5 0.046875 0
vt 0.5 0.03125 0
vt 0.34375 0.03125 0
vt 0.09375 0.140625 0
vt 0.25 0.140625 0
vt 0.40625 0.140625 0
vt 0.40625 0.046875 0
vt 0 0.046875 0
vt 0 0.03125 0
# 14 texture coordinates

o plate
usemtl Default
f 43/52/1 44/51/1 45/50/1 46/49/1
f 42/56/2 41/55/2 47/54/2 48/53/2
f 46/49/3 45/50/3 48/58/3 47/57/3
f 41/50/4 42/60/4 44/59/4 43/58/4
f 41/62/5 43/52/5 46/49/5 47/61/5
f 44/51/6 42/56/6 48/53/6 45/50/6

v 0.765625 0.04812499880791 0.91628420352936
v 0.234375 0.04812499880791 0.91628420352936
v 0.765625 0.15437500178814 0.43815922737122
v 0.234375 0.15437500178814 0.43815922737122
v 0.765625 0.15437500178814 0.91628420352936
v 0.234375 0.15437500178814 0.91628420352936
# 6 vertices

# 0 normal

vt 0.515625 0.25 0
vt 0.671875 0.25 0
vt 0.671875 0.21875 0
vt 0.515625 0.21875 0
vt 0.8125 0.25 0
vt 0.96875 0.25 0
vt 0.96875 0.21875 0
vt 0.8125 0.21875 0
vt 0.515625 0.390625 0
vt 0.671875 0.390625 0
vt 0.828125 0.390625 0
vt 0.828125 0.25 0
vt 0.375 0.25 0
vt 0.375 0.21875 0
# 14 texture coordinates

o plate2
usemtl Default
f 41/66/1 42/65/1 52/64/1 51/63/1
f 50/70/2 49/69/2 53/68/2 54/67/2
f 51/63/3 52/64/3 54/72/3 53/71/3
f 49/64/4 50/74/4 42/73/4 41/72/4
f 49/76/5 41/66/5 51/63/5 53/75/5
f 42/65/6 50/70/6 54/67/6 52/64/6

v 0.234375 1.26999998092651 0.43815922737122
v 0.765625 1.26999998092651 0.43815922737122
v 0.234375 0.15437500178814 0.49128422141075
v 0.765625 0.15437500178814 0.49128422141075
v 0.765625 1.26999998092651 0.49128422141075
v 0.234375 1.26999998092651 0.49128422141075
# 6 vertices

# 0 normal

vt 0.015625 0.484375 0
vt 0.171875 0.484375 0
vt 0.171875 0.15625 0
vt 0.015625 0.15625 0
vt 0.1875 0.484375 0
vt 0.34375 0.484375 0
vt 0.34375 0.15625 0
vt 0.1875 0.15625 0
vt 0.015625 0.5 0
vt 0.171875 0.5 0
vt 0.328125 0.5 0
vt 0.328125 0.484375 0
vt 0 0.484375 0
vt 0 0.15625 0
# 14 texture coordinates

o back
usemtl Default
f 51/80/1 52/79/1 55/78/1 56/77/1
f 57/84/2 58/83/2 59/82/2 60/81/2
f 56/77/3 55/78/3 60/86/3 59/85/3
f 58/78/4 57/88/4 52/87/4 51/86/4
f 58/90/5 51/80/5 56/77/5 59/89/5
f 52/79/6 57/84/6 60/81/6 55/78/6

v 0.71249997615814 0.15437500178814 0.54440921545029
v 0.28749999403954 0.15437500178814 0.54440921545029
v 0.28749999403954 0.20749999582767 0.54440921545029
v 0.71249997615814 0.20749999582767 0.54440921545029
v 0.28749999403954 0.15437500178814 0.86315923929214
v 0.71249997615814 0.15437500178814 0.86315923929214
v 0.71249997615814 0.20749999582767 0.86315923929214
v 0.28749999403954 0.20749999582767 0.86315923929214
# 8 vertices

# 0 normal

vt 0.65625 0.90625 0
vt 0.78125 0.90625 0
vt 0.78125 0.890625 0
vt 0.65625 0.890625 0
vt 0.875 0.90625 0
vt 1 0.90625 0
vt 1 0.890625 0
vt 0.875 0.890625 0
vt 0.65625 1 0
vt 0.78125 1 0
vt 0.90625 1 0
vt 0.90625 0.90625 0
vt 0.5625 0.90625 0
vt 0.5625 0.890625 0
# 14 texture coordinates

o plate3
usemtl Default
f 61/94/1 62/93/1 63/92/1 64/91/1
f 65/98/2 66/97/2 67/96/2 68/95/2
f 64/91/3 63/92/3 68/100/3 67/99/3
f 66/92/4 65/102/4 62/101/4 61/100/4
f 66/104/5 61/94/5 64/91/5 67/103/5
f 62/93/6 65/98/6 68/95/6 63/92/6

v 0.28749999403954 -0.00499999988824 0.86315923929214
v 0.234375 -0.00499999988824 0.86315923929214
v 0.234375 0.04812499880791 0.86315923929214
v 0.28749999403954 0.04812499880791 0.86315923929214
v 0.234375 -0.00499999988824 0.91628420352936
v 0.28749999403954 -0.00499999988824 0.91628420352936
v 0.28749999403954 0.04812499880791 0.91628420352936
# 7 vertices

# 0 normal

vt 0.015625 0.984375 0
vt 0.03125 0.984375 0
vt 0.03125 0.96875 0
vt 0.015625 0.96875 0
vt 0.046875 0.984375 0
vt 0.0625 0.984375 0
vt 0.0625 0.96875 0
vt 0.046875 0.96875 0
vt 0.015625 1 0
vt 0.03125 1 0
vt 0.046875 1 0
vt 0 0.984375 0
vt 0 0.96875 0
# 13 texture coordinates

o wheel1
usemtl Default
f 69/108/1 70/107/1 71/106/1 72/105/1
f 73/112/2 74/111/2 75/110/2 50/109/2
f 72/105/3 71/106/3 50/114/3 75/113/3
f 74/106/4 73/109/4 70/115/4 69/114/4
f 74/117/5 69/108/5 72/105/5 75/116/5
f 70/107/6 73/112/6 50/109/6 71/106/6

v 0.28749999403954 -0.00499999988824 0.49128422141075
v 0.234375 -0.00499999988824 0.49128422141075
v 0.234375 0.04812499880791 0.49128422141075
v 0.28749999403954 0.04812499880791 0.49128422141075
v 0.234375 -0.00499999988824 0.54440921545029
v 0.28749999403954 -0.00499999988824 0.54440921545029
v 0.28749999403954 0.04812499880791 0.54440921545029
v 0.234375 0.04812499880791 0.54440921545029
# 8 vertices

# 0 normal

vt 0.015625 0.953125 0
vt 0.03125 0.953125 0
vt 0.03125 0.9375 0
vt 0.015625 0.9375 0
vt 0.046875 0.953125 0
vt 0.0625 0.953125 0
vt 0.0625 0.9375 0
vt 0.046875 0.9375 0
vt 0 0.953125 0
vt 0 0.9375 0
# 10 texture coordinates

o wheel2
usemtl Default
f 76/121/1 77/120/1 78/119/1 79/118/1
f 80/125/2 81/124/2 82/123/2 83/122/2
f 79/118/3 78/119/3 83/107/3 82/108/3
f 81/119/4 80/122/4 77/112/4 76/107/4
f 81/127/5 76/121/5 79/118/5 82/126/5
f 77/120/6 80/125/6 83/122/6 78/119/6

v 0.765625 -0.00499999988824 0.49128422141075
v 0.71249997615814 -0.00499999988824 0.49128422141075
v 0.71249997615814 0.04812499880791 0.49128422141075
v 0.765625 0.04812499880791 0.49128422141075
v 0.71249997615814 -0.00499999988824 0.54440921545029
v 0.765625 -0.00499999988824 0.54440921545029
v 0.765625 0.04812499880791 0.54440921545029
v 0.71249997615814 0.04812499880791 0.54440921545029
# 8 vertices

# 0 normal

vt 0.015625 0.921875 0
vt 0.03125 0.921875 0
vt 0.03125 0.90625 0
vt 0.015625 0.90625 0
vt 0.046875 0.921875 0
vt 0.0625 0.921875 0
vt 0.0625 0.90625 0
vt 0.046875 0.90625 0
vt 0 0.921875 0
vt 0 0.90625 0
# 10 texture coordinates

o wheel3
usemtl Default
f 84/131/1 85/130/1 86/129/1 87/128/1
f 88/135/2 89/134/2 90/133/2 91/132/2
f 87/128/3 86/129/3 91/120/3 90/121/3
f 89/129/4 88/132/4 85/125/4 84/120/4
f 89/137/5 84/131/5 87/128/5 90/136/5
f 85/130/6 88/135/6 91/132/6 86/129/6

v 0.765625 -0.00499999988824 0.86315923929214
v 0.71249997615814 -0.00499999988824 0.86315923929214
v 0.71249997615814 0.04812499880791 0.86315923929214
v 0.765625 0.04812499880791 0.86315923929214
v 0.71249997615814 -0.00499999988824 0.91628420352936
v 0.765625 -0.00499999988824 0.91628420352936
v 0.71249997615814 0.04812499880791 0.91628420352936
# 7 vertices

# 0 normal

vt 0.015625 0.890625 0
vt 0.03125 0.890625 0
vt 0.03125 0.875 0
vt 0.015625 0.875 0
vt 0.046875 0.890625 0
vt 0.0625 0.890625 0
vt 0.0625 0.875 0
vt 0.046875 0.875 0
vt 0 0.890625 0
# 9 texture coordinates

o wheel4
usemtl Default
f 92/141/1 93/140/1 94/139/1 95/138/1
f 96/145/2 97/144/2 49/143/2 98/142/2
f 95/138/3 94/139/3 98/130/3 49/131/3
f 97/139/4 96/142/4 93/135/4 92/130/4
f 97/37/5 92/141/5 95/138/5 49/146/5
f 93/140/6 96/145/6 98/142/6 94/139/6

v 0.34062498807907 0.17088030278683 0.80700141191483
v 0.28749999403954 0.17088030278683 0.80700141191483
v 0.28749999403954 1.05750000476837 0.44878423213959
v 0.34062498807907 1.05750000476837 0.44878423213959
v 0.28749999403954 0.19078135490417 0.85625809431076
v 0.34062498807907 0.19078135490417 0.85625809431076
v 0.34062498807907 1.07740104198456 0.4980408847332
v 0.28749999403954 1.07740104198456 0.4980408847332
# 8 vertices

vn 0 -0.37460514903069 -0.9271844625473
vn 0 0.37460514903069 0.9271844625473
vn 0 0.9271844625473 -0.37460514903069
vn 0 -0.9271844625473 0.37460514903069
# 4 normals

vt 0.953125 0.875 0
vt 0.96875 0.875 0
vt 0.96875 0.59375 0
vt 0.953125 0.59375 0
vt 0.984375 0.875 0
vt 1 0.875 0
vt 1 0.59375 0
vt 0.984375 0.59375 0
vt 0.953125 0.890625 0
vt 0.96875 0.890625 0
vt 0.984375 0.890625 0
vt 0.9375 0.875 0
vt 0.9375 0.59375 0
# 13 texture coordinates

o stripe1
usemtl Default
f 99/150/7 100/149/7 101/148/7 102/147/7
f 103/154/8 104/153/8 105/152/8 106/151/8
f 102/147/9 101/148/9 106/156/9 105/155/9
f 104/148/10 103/151/10 100/157/10 99/156/10
f 104/159/5 99/150/5 102/147/5 105/158/5
f 100/149/6 103/154/6 106/151/6 101/148/6

v 0.71249997615814 0.17088030278683 0.80700141191483
v 0.65937501192093 0.17088030278683 0.80700141191483
v 0.65937501192093 1.05750000476837 0.44878423213959
v 0.71249997615814 1.05750000476837 0.44878423213959
v 0.65937501192093 0.19078135490417 0.85625809431076
v 0.71249997615814 0.19078135490417 0.85625809431076
v 0.71249997615814 1.07740104198456 0.4980408847332
v 0.65937501192093 1.07740104198456 0.4980408847332
# 8 vertices

# 0 normal

vt 0.953125 0.5625 0
vt 0.96875 0.5625 0
vt 0.96875 0.28125 0
vt 0.953125 0.28125 0
vt 0.984375 0.5625 0
vt 1 0.5625 0
vt 1 0.28125 0
vt 0.984375 0.28125 0
vt 0.953125 0.578125 0
vt 0.96875 0.578125 0
vt 0.984375 0.578125 0
vt 0.9375 0.5625 0
vt 0.9375 0.28125 0
# 13 texture coordinates

o stripe2
usemtl Default
f 107/163/7 108/162/7 109/161/7 110/160/7
f 111/167/8 112/166/8 113/165/8 114/164/8
f 110/160/9 109/161/9 114/169/9 113/168/9
f 112/161/10 111/164/10 108/170/10 107/169/10
f 112/172/5 107/163/5 110/160/5 113/171/5
f 108/162/6 111/167/6 114/164/6 109/161/6

v 0.65937501192093 0.68949335813522 0.59618526697159
v 0.34062498807907 0.68949335813522 0.59618526697159
v 0.34062498807907 0.73874998092651 0.5762842297554
v 0.65937501192093 0.73874998092651 0.5762842297554
v 0.34062498807907 0.70939439535141 0.64544194936752
v 0.65937501192093 0.70939439535141 0.64544194936752
v 0.65937501192093 0.75865107774734 0.62554085254669
v 0.34062498807907 0.75865107774734 0.62554085254669
# 8 vertices

# 0 normal

vt 0.421875 0.984375 0
vt 0.515625 0.984375 0
vt 0.515625 0.96875 0
vt 0.421875 0.96875 0
vt 0.53125 0.984375 0
vt 0.625 0.984375 0
vt 0.625 0.96875 0
vt 0.53125 0.96875 0
vt 0.421875 1 0
vt 0.515625 1 0
vt 0.609375 1 0
vt 0.609375 0.984375 0
vt 0.40625 0.984375 0
vt 0.40625 0.96875 0
# 14 texture coordinates

o stripe3
usemtl Default
f 115/176/7 116/175/7 117/174/7 118/173/7
f 119/180/8 120/179/8 121/178/8 122/177/8
f 118/173/9 117/174/9 122/182/9 121/181/9
f 120/174/10 119/184/10 116/183/10 115/182/10
f 120/186/5 115/176/5 118/173/5 121/185/5
f 116/175/6 119/180/6 122/177/6 117/174/6

